<?xml version="1.0" encoding="UTF-8" standalone="no"?>
<!-- Created with Inkscape (http://www.inkscape.org/) -->

<svg
   version="1.1"
   id="svg2"
   xml:space="preserve"
   width="8133.3306"
   height="3999.9968"
   viewBox="0 0 8133.3306 3999.9968"
   sodipodi:docname="9365291dd3f8c0a18239dda7be95e762.eps"
   xmlns:inkscape="http://www.inkscape.org/namespaces/inkscape"
   xmlns:sodipodi="http://sodipodi.sourceforge.net/DTD/sodipodi-0.dtd"
   xmlns="http://www.w3.org/2000/svg"
   xmlns:svg="http://www.w3.org/2000/svg"><defs
     id="defs6" /><sodipodi:namedview
     id="namedview4"
     pagecolor="#333"
     bordercolor="#666666"
     borderopacity="1.0"
     inkscape:pageshadow="2"
     inkscape:pageopacity="0.0"
     inkscape:pagecheckerboard="0" /><g
     id="g8"
     inkscape:groupmode="layer"
     inkscape:label="ink_ext_XXXXXX"
     transform="matrix(1.3333333,0,0,-1.3333333,0,3999.9968)"><g
       id="g10"
       transform="scale(0.1)"><g
         id="g12"
         transform="scale(3.74233)"><path
           d="M 16300,0 H 0 V 8016.39 H 16300 V 0"
           style="fill:#333;fill-opacity:1;fill-rule:nonzero;stroke:none"
           id="path14" /></g><g
         id="g16"
         transform="scale(3.10102)"><path
           d="m 14280,7584.89 -463.3,226.64 c -37,18.06 -28.5,72.99 12.2,79.05 l 2267.7,337.87 c 15.2,2.26 20.9,-19.2 6.6,-24.75 l -1732.9,-671.95 c -16.2,-6.26 -26.8,-21.77 -26.8,-39.05 v -604.62 c 0,-35.74 41.9,-55.06 69.1,-31.86 l 383.1,326.92 c 14.3,12.21 35,13.38 50.6,2.87 l 540.9,-364.4 c 19.7,-13.28 46.5,-7.51 59,12.71 l 846.8,1369.34 c 7,11.27 -5.5,24.46 -17.2,18.05 l -1247.1,-688.58 c -223.1,-123.17 -399.5,-316.13 -502.5,-549.22 -84,-190.13 -186.4,-402.1 -257.9,-484.12 -787.2,-902.12 -2161.8,-228.06 -2313.5,-864.01 -125.7,-526.56 740.5,-163.39 385.4,446.66 -671,1152.89 -1156.3,-905.8 -2053.4,-250.95 -1272.07,928.55 -809.42,-963.58 -1589.9,-1267.13 -759.46,-295.35 -1056.07,916.12 -534.79,867.23 462.52,-43.34 -84.62,-1371.93 -1186.13,-1441.97 -300.15,-19.06 -566.77,-141.21 -777.06,-349.76 0,0 -1034.53,-1188.19 -1174,-1234.69 -139.47,-46.47 -1599.25,993.45 -1547.39,1082.45 55.53,95.33 2698.14,407.96 2837.61,268.49 139.47,-139.47 297.45,-1841.74 185.97,-1975.86 -116.28,-139.89 -2664.06,-464.56 -2881.66,-278.59 -217.61,185.98 -302.42,1538.01 -228.92,1864.52"
           style="fill:none;stroke:#FFFFFF;stroke-width:25.7979;stroke-linecap:round;stroke-linejoin:round;stroke-miterlimit:10;stroke-dasharray:none;stroke-opacity:1"
           id="path18" /></g></g></g></svg>