<svg xmlns="http://www.w3.org/2000/svg" width="3000" height="3000" fill="none" viewBox="0 0 3000 3000">
  <g filter="url(#a)">
    <path fill="#fff" d="M76.962 2406.27h89.885l94.934 231.62h4.04l94.935-231.62h89.885V2751h-70.696v-224.38h-2.862l-89.212 222.7h-48.14l-89.212-223.54h-2.861V2751H76.962v-344.73ZM570.108 2751h-78.102l119.005-344.73h93.925L823.773 2751H745.67l-86.35-265.95h-2.693L570.108 2751Zm-4.881-135.5H749.71v56.89H565.227v-56.89Zm438.063-209.23h72.04v240.37c0 22.22-4.99 41.52-14.98 57.9-9.87 16.39-23.62 29.01-41.24 37.88-17.62 8.86-38.095 13.29-61.436 13.29-20.76 0-39.612-3.64-56.557-10.94-16.832-7.4-30.186-18.63-40.061-33.66-9.875-15.15-14.756-34.17-14.644-57.06h72.548c.224 9.08 2.076 16.88 5.554 23.39 3.591 6.4 8.473 11.34 14.645 14.81 6.284 3.37 13.69 5.05 22.218 5.05 8.978 0 16.552-1.9 22.724-5.72 6.284-3.93 11.053-9.65 14.308-17.17 3.251-7.52 4.881-16.77 4.881-27.77v-240.37ZM1257.8 2751h-122.21v-344.73h123.22c34.67 0 64.52 6.9 89.54 20.71 25.03 13.69 44.27 33.38 57.74 59.08 13.58 25.7 20.37 56.44 20.37 92.24 0 35.91-6.79 66.77-20.37 92.58-13.47 25.81-32.82 45.61-58.07 59.42-25.14 13.8-55.21 20.7-90.22 20.7Zm-49.32-62.45h46.29c21.54 0 39.66-3.81 54.36-11.44 14.82-7.75 25.93-19.7 33.33-35.86 7.52-16.27 11.28-37.25 11.28-62.95 0-25.47-3.76-46.29-11.28-62.45-7.4-16.16-18.46-28.05-33.16-35.68-14.7-7.63-32.82-11.45-54.37-11.45h-46.45v219.83Zm311.94 62.45h-78.1l119.01-344.73h93.92L1774.09 2751h-78.11l-86.35-265.95h-2.69L1520.42 2751Zm-4.88-135.5h184.48v56.89h-184.48v-56.89Zm338.92 139.2c-10.21 0-18.96-3.59-26.26-10.77-7.29-7.18-10.88-15.93-10.77-26.26-.11-10.1 3.48-18.74 10.77-25.92 7.3-7.18 16.05-10.77 26.26-10.77 9.88 0 18.46 3.59 25.76 10.77 7.4 7.18 11.16 15.82 11.27 25.92-.11 6.85-1.9 13.08-5.38 18.69-3.37 5.61-7.86 10.1-13.47 13.46-5.5 3.26-11.56 4.88-18.18 4.88Zm401.24-176.06c0 36.35-6.56 67.77-19.69 94.26-13.13 26.48-31.14 46.9-54.03 61.27-22.89 14.36-49.04 21.54-78.44 21.54s-55.55-7.18-78.44-21.54c-22.89-14.37-40.9-34.79-54.03-61.27-13.13-26.49-19.7-57.91-19.7-94.26 0-36.36 6.57-67.78 19.7-94.26 13.13-26.49 31.14-46.91 54.03-61.27 22.89-14.37 49.04-21.55 78.44-21.55s55.55 7.18 78.44 21.55c22.89 14.36 40.9 34.78 54.03 61.27 13.13 26.48 19.69 57.9 19.69 94.26Zm-40.39 0c0-29.85-5-55.05-14.98-75.58-9.88-20.54-23.29-36.08-40.23-46.63-16.84-10.55-35.69-15.82-56.56-15.82-20.87 0-39.78 5.27-56.73 15.82-16.83 10.55-30.24 26.09-40.23 46.63-9.87 20.53-14.81 45.73-14.81 75.58s4.94 55.04 14.81 75.57c9.99 20.54 23.4 36.08 40.23 46.63 16.95 10.55 35.86 15.82 56.73 15.82 20.87 0 39.72-5.27 56.56-15.82 16.94-10.55 30.35-26.09 40.23-46.63 9.98-20.53 14.98-45.72 14.98-75.57ZM2325.89 2751v-344.73h116.48c26.94 0 49.04 4.6 66.32 13.81 17.29 9.08 30.08 21.6 38.38 37.53 8.31 15.94 12.46 34.06 12.46 54.37 0 20.31-4.15 38.32-12.46 54.03-8.3 15.71-21.04 28.06-38.21 37.03-17.17 8.87-39.1 13.3-65.81 13.3h-94.26v-37.7h92.91c18.4 0 33.22-2.7 44.44-8.08 11.33-5.39 19.52-13.02 24.57-22.9 5.17-9.98 7.75-21.88 7.75-35.68s-2.58-25.87-7.75-36.19c-5.16-10.32-13.41-18.29-24.74-23.9-11.33-5.72-26.31-8.59-44.94-8.59h-73.39V2751h-41.75Zm162.27-154.86 84.83 154.86h-48.47l-83.49-154.86h47.13Zm376.58-82.14c-3.7-11.33-8.58-21.49-14.64-30.47-5.95-9.09-13.08-16.83-21.38-23.23-8.19-6.39-17.51-11.27-27.94-14.64-10.44-3.37-21.88-5.05-34.34-5.05-20.42 0-38.99 5.27-55.71 15.82-16.73 10.55-30.02 26.09-39.9 46.63-9.87 20.53-14.81 45.73-14.81 75.58s4.99 55.04 14.98 75.57c9.99 20.54 23.51 36.08 40.57 46.63 17.05 10.55 36.24 15.82 57.56 15.82 19.75 0 37.15-4.21 52.18-12.62 15.15-8.53 26.94-20.54 35.35-36.02 8.53-15.6 12.79-33.95 12.79-55.05l12.8 2.7h-103.69v-37.03h131.29v37.03c0 28.39-6.06 53.08-18.18 74.06-12 20.98-28.61 37.26-49.82 48.81-21.1 11.45-45.34 17.17-72.72 17.17-30.52 0-57.34-7.18-80.46-21.54-23-14.37-40.95-34.79-53.86-61.27-12.79-26.49-19.19-57.91-19.19-94.26 0-27.27 3.65-51.79 10.94-73.56 7.41-21.88 17.85-40.51 31.31-55.88 13.47-15.38 29.4-27.16 47.81-35.35 18.4-8.19 38.65-12.29 60.76-12.29 18.18 0 35.12 2.75 50.83 8.25 15.83 5.38 29.91 13.07 42.25 23.06 12.46 9.87 22.84 21.71 31.14 35.51 8.31 13.69 14.03 28.9 17.17 45.62h-43.09Z"/>
  </g>
  <path fill="#fff" d="M1565 2051.75c0-104.25 89.54-188.75 200-188.75 110.45 0 200 84.5 200 188.75s-89.55 188.75-200 188.75c-110.46 0-200-84.5-200-188.75Z"/>
  <path stroke="#fff" stroke-linecap="square" stroke-miterlimit="10" stroke-width="441" d="m260 315.177 916-.221-13.75 914.324c10.91 294.82-449.522 790.44-865.714 790.44"/>
  <mask id="b" width="1437" height="2113" x="1564" y="127" maskUnits="userSpaceOnUse" style="mask-type:luminance">
    <path fill="#fff" d="M1564.56 127.5H3000V2240H1564.56V127.5Z"/>
  </mask>
  <g mask="url(#b)">
    <path stroke="#fff" stroke-linecap="square" stroke-miterlimit="10" stroke-width="441" d="m1504.64 311.344 616.8 169.352 577.23-211.042-6.81 1751.196"/>
  </g>
  <defs>
    <filter id="a" width="2840.89" height="362.153" x="72.962" y="2401.56" color-interpolation-filters="sRGB" filterUnits="userSpaceOnUse">
      <feFlood flood-opacity="0" result="BackgroundImageFix"/>
      <feColorMatrix in="SourceAlpha" result="hardAlpha" values="0 0 0 0 0 0 0 0 0 0 0 0 0 0 0 0 0 0 127 0"/>
      <feOffset dy="4"/>
      <feGaussianBlur stdDeviation="2"/>
      <feComposite in2="hardAlpha" operator="out"/>
      <feColorMatrix values="0 0 0 0 0 0 0 0 0 0 0 0 0 0 0 0 0 0 0.25 0"/>
      <feBlend in2="BackgroundImageFix" result="effect1_dropShadow_142_13"/>
      <feBlend in="SourceGraphic" in2="effect1_dropShadow_142_13" result="shape"/>
    </filter>
  </defs>
</svg>
